<svg version="1" xmlns="http://www.w3.org/2000/svg" width="341.333" height="341.333" viewBox="0 0 256.000000 256.000000"><path d="M137 31.1c0 .5-.4.8-.8.5-1-.6-.9 2.5.2 4.2.4.6.3 1.2-.1 1.2-.5 0-.9 1.9-.9 4.3-.1 3 .3 4.4 1.2 4.4.7 0 1.6-.7 1.8-1.4.4-.8.1-1.1-.5-.7-.7.4-.9-1.6-.6-6.5.3-3.9.3-7.1.1-7.1-.2 0-.4.5-.4 1.1zM109.5 34c-.3.5-.1 1 .4 1 .6 0 1.1-.5 1.1-1 0-.6-.2-1-.4-1-.3 0-.8.4-1.1 1zM120 36.5c-1.1 1.3-1 1.4.4.9.9-.3 1.6-1 1.6-1.5 0-1.3-.6-1.1-2 .6zM110.8 36.7c.7.3 1.6.2 1.9-.1.4-.3-.2-.6-1.3-.5-1.1 0-1.4.3-.6.6z"/><path d="M120.8 39.2c-.2.7-.3 4.3-.2 8 .1 3.7-.2 6.5-.7 6.2-.5-.3-.7-1.8-.5-3.4.2-1.7-.1-3-.5-3-.5 0-1 .4-1 1-.1.5-.2 1.4-.3 1.9-.3 2-1.5 2.2-2.5.2-.8-1.4-.8-2.2.1-2.7.7-.5.8-.3.3.6-.6.9-.4 1.1.5.5 1-.6.6-1.4-1.6-3.2-1.6-1.2-2.4-2.3-1.7-2.3s1-.7.7-1.5c-.8-2-1.7-1.9-3.2.6-.8 1.2-.9 1.8-.3 1.4.6-.3 1.1-.2 1.1.4 0 .5-.4 1.2-1 1.6-.5.3-.6 1.5-.1 2.8.4 1.2.7 2.8.5 3.5-.1.7 0 .8.3.2.7-1.5 2-1.2 2 .4 0 .8-.5 1.4-1.1 1.3-.6-.1-1 .3-.9.9.2.9-.4.9-2.2 0-1.4-.6-1.9-1.3-1.2-1.6.7-.3 1.3-1.4 1.5-2.5l.4-2-1.6 2c-1.2 1.6-1.7 1.8-2.8.7-1.1-1.1-1-1.2.5-.7.9.4 1.7.3 1.7-.3 0-1.4-2.8-2.3-3.6-1.1-.3.6-.1 1.6.5 2.2 1.6 1.6 1.4 2.5-.9 3.2-1.1.4-1.7 1.1-1.4 1.7.4.5.9.6 1.3.2.3-.5 1.2-1 1.9-1.2 1-.2 1 .2.2 1.9-1.1 2-1.2 2-3.1.3-1.8-1.6-1.8-1.8-.2-3.8 1.5-1.7 1.5-1.9.1-.8-1 .8-1.9.9-2.2.3-.3-.5 0-1.2.6-1.4.9-.4 1-.6.1-.6-.6-.1-1.5.4-1.8.9-.5.8-1.2.7-2.3-.2-1.5-1.1-1.5-1.1-.5.3.9 1 .9 1.9.2 2.6-.6.6-.5 1 .6 1 .8 0 1.5-.7 1.5-1.4 0-.8.5-1.1 1-.8.6.4.8 1.1.4 1.6-.3.5 0 1.8.7 2.7 1.1 1.4 1.1 1.5-.1.4-1.9-1.6-4.1-1.5-3.4.2.3.8 0 1.7-.7 2.2-.9.5-1 .2-.6-.9.7-1.9-.9-3.3-1.7-1.5-.3.7-.3.2 0-1.1.4-1.7.2-2.2-.7-1.9-.8.3-1.3 1.4-1.1 2.4.2 1.7.2 1.7-.8.2-.6-1-1.7-1.5-2.7-1.1-.9.4-1.4.2-1.1-.3.4-.5 0-2-.8-3.4-.9-1.6-1.3-1.9-1.4-.9 0 .9.3 1.9.8 2.3.4.4.7 1.3.7 1.9 0 .7.8 1.1 1.8 1.1.9-.1 1.4.2 1.1.7-.3.5.5 1.3 1.8 1.8 1.6.7 1.8 1 .6 1-1.1.1-1.6.8-1.3 2.1.2 1.1 0 1.8-.5 1.5-.4-.3-1-.2-1.3.2-.2.5-.2.2 0-.6s-.2-1.1-1.2-.7c-.9.3-1.4.2-1.2-.2.3-.4-.1-1.3-.9-2s-1.4-.9-1.4-.5c-.1.4-.7-.3-1.5-1.7-.7-1.4-1.7-2.5-2.2-2.5-1.5.1-4.2-2.8-3.6-3.8.4-.6.1-.7-.6-.2-.9.5-1 1-.2 1.8 1.8 1.8 1.3 3.1-.6 1.6-1.6-1.1-1.6-1.1-.5.1.7.8 2 1.5 2.9 1.5.9 0 1.8.6 2 1.3.3.7-.1 1-1.1.6-1.8-.7-2 .4-.6 2.6.5.8 1 1 1 .3 0-1.5 2.7-1.1 4.3.7.8.8.8 1.1 0 .6-.6-.3-1.3-.3-1.6.1-.2.5-.2.1 0-.7.3-1.2.2-1.2-.8-.3-1 1-.9 1.6.1 2.8 1 1.3 1.5 1.3 2.1.3.5-.8.7-.2.6 1.5-.1 1.5-.5 2.6-.8 2.5-.4-.2-1.7.6-2.8 1.6-1.8 1.7-2.1 1.7-1.5.3.6-1.6 1.7-2.1 3.7-1.8 1 .2.9-1.7-.2-2.4-.5-.3-1.3-.1-1.6.5-.5.8-1.2.7-2.2-.2-1.4-1.1-1.5-1-1 .7.8 2.6-.7 5.4-1.6 3.1-.4-.9-1.1-1.6-1.7-1.6-.7 0-.7.7.1 2.2.6 1.3.8 2 .4 1.6-.5-.4-1.5-.2-2.3.5-1.1.8-1.4.8-.9 0 .4-.6.3-1.4-.2-1.7-.5-.4-1.2-.2-1.5.3-.8 1.2 1.4 6.2 2.4 5.6.5-.3.6 2.2.1 4.4-.1.2-.8-.2-1.6-.9-.9-.7-1.3-2-1-2.8.3-.8-.2-2.5-1-3.8-.9-1.4-1.1-2.4-.5-2.4.6 0 .8-.5.4-1.2-.4-.6-.3-.8.4-.4.6.3 1.3.2 1.6-.3.3-.5-.1-1.2-1-1.5-2.3-.9-2.4-.8-2.4 1.5 0 1.1-.5 1.7-1 1.4-.7-.4-.7-1.3 0-2.6 1.4-2.5-1.4-5.9-3.3-4-.8.8-.7 1.1.4 1.1.8 0 1.5.9 1.6 2 .1 1.1-.2 1.8-.8 1.5-1.8-1.2-.8.4 2.1 3.3 3.3 3.3 4 5.8 1.4 4.8-1.4-.5-1.5-.4-.5.8.8.9.8 1.6.2 2-.5.4-.8 1.5-.6 2.6.3 1.4-.1 1.7-1.3 1.3-1.5-.6-1.5-.4-.4.9 1.1 1.4 1 1.6-1.2 1.4-1.5-.2-2.6 0-2.6.4s-1 1.2-2.2 1.9c-1.8.9-1.8 1-.3.5 4.4-1.4 6.1-1.2 6.2.8.2 1.7 0 1.8-1 .6-1-1.2-1.6-1.3-3.5-.3-2.2 1.2-2.2 1.3-.3 1.8 1.1.3 2 .2 1.9-.2-.2-2.2.4-2.3 1.6-.1 1.7 3.3.9 4.6-1.5 2.4-1.2-1.1-2.7-1.4-4.6-1-1.5.4-2.3.3-1.6-.1.8-.6.9-1.4.3-2.3-.8-1.3-1-1.2-1 .2 0 1-.5 1.8-1.1 1.8-.5 0-.7-.5-.3-1.2.5-.7.3-.8-.6-.3-1 .6-1.2.4-.7-.8 1.1-3-.2-1.8-1.8 1.5-1.1 2.3-1.2 2.8-.2 1.6 1.3-1.6 1.5-1.6 3.5.2 1.2 1.1 1.9 2.8 1.7 4-.3 1.7-.1 1.9 1.5 1 1.2-.7 2-.6 2.3 0 .3.6.4.5.3-.2-.2-.7-1-1.2-1.8-1-.8.1-1.5-.4-1.5-1.2 0-1.5 2.7-1 3.9.8 1.6 2.4.7 3.4-2.7 3.1-4.3-.4-6.2-1.4-4.5-2.5.8-.5.7-.9-.5-1.3-.9-.4-1.4-.3-1 .2.9 1.6-1.9 1.9-3.7.4-1.5-1.3-1.6-1.3-1.3.4.1 1 .8 1.7 1.4 1.6.6-.2 1.1.2 1.1.7 0 .5.3.9.8.9 2-.3 2.5.2 1.2 1.2-1.3.9-1.3 1 .2.6.9-.3 1.9-.3 2.1.1.2.4.2.1 0-.6-.1-.7.2-1 .8-.6.6.3.9 1.4.6 2.3-.3 1.1.3 1.6 2 1.7 1.4.1 2-.2 1.6-.9-.3-.6-.1-.7.6-.3.9.6.9 1.1 0 2.2-.8 1-1.4 1.1-1.9.4-.4-.6-1.4-.8-2.2-.5-.9.4-1.8 0-2.2-1-.4-1.2-1-1.4-2.5-.5-2.6 1.3-3.4 1.3-2.5-.3.5-.8.4-.9-.3-.2-2.3 2.1-2.3 5-.2 6.3 1.5 1 1.9 1 1.4.1-.5-.7-.3-1 .6-.7.8.3 1.3 1.1 1.1 1.7-.1.7.2.9.8.6.6-.4.9-1.3.6-2.1-.3-.8 0-1.4.5-1.4.7 0 .9 1.1.7 2.5-.6 3.1 0 3.2 1.2.2l.9-2.2v2.2c.1 1.6.6 2.1 2.1 1.8 1.1-.2 1.8 0 1.5.5-.3.5-1.4.7-2.5.5-1.3-.3-1.7.1-1.3 1.1.3.7.9 1.1 1.4.8.5-.3.9 0 .9.5 0 1.5-1.1 1.4-3-.4-1.7-1.5-7-3.1-5.6-1.7.4.4 1.2.8 1.7.8.5.1 1.3.2 1.8.3 1.3.2 2.2 2.9 1.1 3.6-.5.3-1.2 0-1.6-.6-.5-.8-.3-.9.7-.4.8.5 1.1.4.6 0-.9-1.1-4.8-1.4-4.2-.4.3.4-.2 1-1.1 1.3-1.1.4-1.5.2-1.1-.7.3-.8-.1-1.4-.8-1.4-.7 0-1.1.7-.8 1.4.3.8.2 1.3-.3 1.2-2-.3-3.4.2-3.4 1.2 0 .8.4.8 1.4-.1 1.2-.9 1.7-.7 2.8.9.7 1.2 2.1 2.1 3 2.1 1 0 1.8.5 1.8 1.1 0 .6.7.8 1.6.5.9-.3 2.5.1 3.7.9 1.5 1 1.7 1.5.7 1.5s-1.1.3-.4.8c.9.5.8 1-.1 1.9-1 1-1.5.9-1.9-.4-.6-1.4-.8-1.4-2.2.3-.9 1-1.3 1.4-1 .8.3-.7-1.4-.9-5.2-.7-8.2.5-8.2.5-8.2 1.7 0 .6-.5.4-1-.4-.7-1.2-.9-1-.7.7.1 1.5.5 1.9 1.3 1.3.6-.6 1.4-.7 1.7-.3.4.3.7.1.7-.5 0-.7.5-1.2 1.1-1.2.6 0 .8.7.5 1.6-.6 1.4-.4 1.5.9.4 1.8-1.5 6.4-2 7.1-.8.3.5 0 .7-.7.6-.6-.2-1.3.2-1.6.9-.3.7.3.9 1.8.6 1.5-.4 2-.3 1.5.5-.4.7.3 1.7 1.8 2.3 1.4.7 2.3 1.6 1.9 2.2-.3.6-.1.7.5.3.7-.4 1.2-.1 1.2.8s-.6 1.3-1.4 1c-.8-.3-1.7 0-2.1.6-.5.8-1.1.7-2.3-.2-1-.8-1.3-.8-.9-.1.4.6.4 1.3 0 1.6-.5.2-.3.2.4.1 1.4-.3 3.5 2 2.6 2.9-.3.4-1.3.1-2.1-.6-1.3-.9-1.4-.9-.8 0 .6 1.1-.3 1.7-2.4 1.5-.3 0-.6.8-.6 1.9 0 1.9.1 1.9 1.4.2 1-1.4 1.4-1.5 2.1-.5.7 1.1.9 1.1 1.4-.2.4-.9 1.2-1.6 1.8-1.6.8 0 .8.4-.1 1.5-.7.8-.9 1.5-.4 1.6.5 0-1.3.9-4.1 1.9-2.7 1-4.2 1.9-3.1 1.9 1.2.1 1.6.6 1.2 1.7-.3.9-.2 1.2.5.9.6-.4.8-1.3.5-2.1-.6-1.6 1.9-1.9 2.9-.4.8 1.3 3.5 1.3 3.5 0 0-.5-.6-.7-1.4-.4-.8.3-1.7 0-2.2-.7-.5-.8-.2-1.1.8-.6.9.3 2 .1 2.6-.5 1.6-1.6 3.6.1 2.1 1.8-1 1.2-.9 1.3.4.8.8-.3 1.8-1.2 2.1-2 .6-1.6 3.2-.9 4 1.2.7 1.8.1 1.8-1.8-.2-1.5-1.4-1.6-1.4-1.6.5 0 1.1-.5 2.3-1.2 2.7-.7.5-.8.3-.3-.7.7-1.1.6-1.2-.7-.2-.8.7-1.8 1-2.1.6-.4-.3-.9.2-1.3 1.1-.3.9-1 1.4-1.4 1.1-1.2-.7-4 .5-4 1.7 0 .7.4.7 1.3.1.6-.6 1.9-1 2.7-1 .8 0 2-.2 2.5-.3 2-.5 3.6 0 3 1-.3.5-1.1.8-1.8.6-.7-.1-.9-.1-.4.1.4.3.4 1 0 1.6-.5.8-.2.8.9 0 .8-.7 1.9-.9 2.3-.5.5.4.5.1.1-.6-1.2-2 1-1.4 3 1 1.6 1.8 1.7 2.1.2 1.5-1.2-.4-1.5-.2-1.1.9.4 1.1.8 1.2 1.9.3 1.2-1 1.3-.9.8.5-.3.9-.1 1.6.6 1.6.6 0 .8-.5.5-1-.3-.6 0-1 .7-1s-.3-1.3-2.2-3c-1.9-1.6-2.9-2.9-2.2-3 .6 0 1.2-.8 1.3-1.8 0-1.4.2-1.4.7-.2.4.8 1.3 1.5 2.1 1.5s1.6.6 1.9 1.2c.2.7-.4 1.3-1.5 1.3-1.5 0-1.6-.2-.3-1 1.1-.7 1-.9-.9-.7l-2.3.1 2.6 2.3c1.4 1.2 3.4 2 4.5 1.8 1.3-.2 1.8.2 1.6 1.3-.1.9.2 2.4.8 3.2.9 1.2.9 1.3-.3.2-2.1-1.8-3.2-1.4-1.8.7.8 1.4 2 1.8 4 1.6 1.6-.2 2.6 0 2.3.5-.3.4.1 1.1.7 1.3 1 .4 1 .6 0 .6-.7.1-1 .5-.7 1.1.3.6-.1 1-1.1 1-1.3 0-1.4-.3-.5-1.4.9-1 .9-1.6.1-2.1-.6-.4-1.4-.4-1.7-.1-.4.3-.1.6.6.6s.9.5.6 1.1c-.5.7-1.3.5-2.4-.5-1-.9-2.1-1.3-2.5-.9-.4.4-.4 0-.1-.9.4-.9.2-1.9-.4-2.3-.8-.4-.8-1.2-.1-2.5.9-1.6.8-1.8-.5-1.4-.9.4-1.3.9-1.1 1.2.3.3 0 1.2-.7 2-.9 1.3-.9 1.4.1.8 1.2-.7 1.6.4 1.2 3.3-.1.8.4 1.2 1.3.8 2-.7 5.1 2.8 4.3 4.8-.3.9-.9 1.4-1.3 1.2-.5-.2-1.8.6-3.1 1.9-1.2 1.3-1.8 2.4-1.2 2.4.6 0 .8.5.5 1-.4.6-1 .8-1.5.5-.5-.3-1.4.4-2 1.5-.6 1.2-1.6 1.8-2.3 1.4-.7-.4-.6-.1.2.7 1 1.1 1.5 1.1 1.8.1.3-.6.9-1 1.4-.6.5.3 1.2-.2 1.5-1 .3-.9 1.1-1.3 1.7-.9.5.3.7.1.3-.5-.3-.6-.2-1.3.4-1.7.5-.3 1 0 1 .7 0 .9.3.9 1-.2 1.3-2 1.2-3-.1-3-.5 0-.7.5-.3 1.2.4.7.3.8-.5.4-1.5-1-.3-2.9 1.4-2.2.8.3 1.6 0 1.9-.7.3-.9.5-.8.5.1.1.7.6 1 1.1.7.8-.5.7-1.1-.1-2.1-.8-1-.8-1.4 0-1.4.6 0 1.1.5 1.1 1.1 0 .8.5.7 1.5-.1.9-.7 1.8-1 2.2-.6.3.3 0 .6-.8.6-1.2 0-1.1.2.1 1.1 1.2.8 1.1.9-.5.7-1.2-.2-1.9.2-1.7 1 .1.8-.2 1.1-.8.7-1.2-.8-1.3.5-.1 2.4.7 1.1 1.1 1 2-.7.6-1.1 2-2 3.1-1.9 1.8.1 1.8 1.2-.1 1.2-2 0-1.2 1.8.9 2.2 1.4.2 2.1-.1 1.7-.7-.3-.5.2-1 1.2-1 1.5 0 1.6-.2.3-1-.8-.5-1-1-.4-1s1.7.7 2.4 1.5 2 1.5 2.9 1.5c1.4 0 1.4.2.1 1-.8.5-1.7.6-2 .2-1.2-1.7-2.7-.8-4.2 2.3-1.4 3.2-1.4 3.3.4 2.2 1-.7 1.8-1.6 1.8-2.2 0-.5 1.3-1 2.9-1 1.9 0 2.7.4 2.4 1.3-.4.8 0 1 1.1.6.9-.3 1.3-1.1.9-1.7-.4-.6-.1-.7.8-.1.8.5 1.7.9 2.2 1 .4.1.9.2 1.2.3.3 0-.2 1.2-1.1 2.6-1.5 2.4-1.5 2.5.9 3.6 1.5.7 2.3 1.7 2 2.5-.3.8.2 1.7 1 2 1.2.4 1.4 1.1.6 3.1-1.1 3.1-1.1 3.3.2 3.3.5 0 .8-.4.5-.8-.3-.5.4-2.5 1.4-4.5 1.3-2.5 1.6-3.6.8-3.5-.7.2-1.6.7-2 1.3-.4.5-1.1.6-1.5.1-.4-.5-.2-1.1.5-1.3.6-.3 1-.8.8-1.2-.3-.4 0-1.3.5-2.1.8-1.3.9-1.2.7.2-.2.9.2 1.7.7 1.6.6 0 .9-.4.8-.9-.2-.5.3-.8 1-.6.6.1 1.1-.5.9-1.3-.2-.8 0-1.1.4-.7 1.1 1.1 1.3 5.7.2 5.7-.4 0-.8.7-.8 1.5s-.6 1.5-1.2 1.5c-.9 0-.8.4.2 1 .9.6 1.1 1.3.5 1.7-.5.5-1.1 1.7-1.3 2.8-.2 1.1-1 3-1.8 4.3-.8 1.2-1.2 2.7-.8 3.3.4.6 0 1.6-.7 2.1-1.2.8-1.1.9.1.5.9-.2 1.4-1.4 1.3-2.6-.2-1.5.1-2 .9-1.5.6.4.8.3.4-.4-.3-.6.1-1.8 1-2.6.8-.9 1.3-1.6.9-1.6-.3 0 0-1 .7-2.3.7-1.2 1.3-2.5 1.4-3 .1-.4.3-1 .4-1.5.1-.4.2-1.1.1-1.5-.1-.5.4-.5 1-.1.9.5 1 .2.6-1.2-.7-1.8-.6-1.8.7-.1.8 1 1.6 1.4 1.8 1 .3-.4.3-.2.2.4-.2.7.1 1.3.6 1.3.6 0 1-.9 1-2s.4-2 1-2 .6.9 0 2.4c-.9 2.3-.5 3.6 1.1 3.6.5 0 .6-.8.3-1.8-.5-1.5-.4-1.5.6.1.9 1.4 1.5 1.6 2.6.6.7-.6 1.1-1.6.7-2.2-.3-.6-.1-.7.5-.3 1.3.8 1.6-.5.5-2-.5-.5-.1-.1.9.8 1.7 1.9 3.3 2.4 2.3.8-.3-.6-.1-1 .4-1 1 0 1.4 1.2.9 2.7-.5 1.2-2.8 1.2-2.8.1 0-.6-.9-.1-1.9 1.1-1.1 1.3-2.5 2-3 1.6-.6-.3-1.1-.3-1.2.2 0 .4-.2 1.6-.4 2.5-.2 1 .1 1.8.6 1.8s.9.5.9 1.1c0 .5-.4.8-.9.4-.5-.3-1.2-.2-1.5.3-.2.4.5.8 1.7.8 1.7 0 2.2-.7 2.4-3 .1-1.6 1-3.7 1.9-4.5 1.5-1.5 1.6-1.4 1.1.2-.4.9-.2 1.7.3 1.7.6 0 1-.8 1-1.8 0-1.4.2-1.5 1-.2.6.9.6 1.8 0 2.4-.6.6-1 1.4-1 1.9s1.2-.5 2.6-2.2c2.4-2.9 5.3-4.4 3.8-1.9-.4.7-.3.8.4.4 1.5-.9 1.6.6.2 2.2-.7.9-.7.9.2.2 1.7-1.4 3.4-1.2 2 .2-1.5 1.5-1.5 2.8-.1 2.8.5 0 .8-.4.4-.9-.3-.6.2-1.4 1.1-1.9 1.5-.8 1.5-1 0-1.5-.9-.4-1.6-1.1-1.6-1.7 0-.6.5-.8 1.1-.4.6.3.4-.8-.5-2.4-1.2-2.3-1.3-3.3-.4-3.8.7-.4.8-.3.4.4s.4 2.3 1.8 3.7c2.7 2.7 3.4 4.1 1.5 2.9-.8-.4-.8 0 0 1.5 1.5 2.8 1.8 2.7 1.6-.9-.1-1.7.2-3 .7-3 .4 0 .8.5.8 1.1 0 .5.5.7 1.1.4.5-.4.9-1.8.7-3-.2-1.3.2-2.4.7-2.4.6 0 .9.6.7 1.3-.1.7.5 1.9 1.3 2.6.8.7 1.5 1.7 1.5 2.3 0 .6-.7.2-1.5-.9-1.4-1.7-1.4-1.6 0 1.3.8 1.8 1.6 4.4 1.7 5.8.1 1.4.6 2.5 1 2.5.5 0 .6 1.1.4 2.5-.3 1.3-.1 2.7.4 3 .5.3.7 1.4.5 2.5-.2 1.2 0 1.8.6 1.5 1.3-.9 1.1-4.5-.3-4.5-.8 0-.9-.3-.3-.8 1.3-.9 1.3-5.7.1-6.9-.5-.5-.6-.2-.1.6.6 1 .4 1.2-.5.6-1-.6-.7-1.4 1.4-3 1.8-1.5 2.4-2.5 1.7-2.9-.6-.4-.8-1.2-.5-1.8.4-.6.3-.9-.2-.6-.5.4-1-.5-1-1.8-.1-1.5.2-2.2 1-1.8.6.3.2-.2-.8-1-1.1-.9-1.4-1.6-.7-1.6s.9-.5.5-1.2-.3-.8.5-.4c.6.4.9 1.2.6 1.7-.4.5-.1.9.6.9.6 0 .9.8.6 2-.3 1.1-.1 1.8.4 1.4.5-.3.9.4.9 1.5 0 1.2.4 2.1.9 2.1s.8 1.1.6 2.5c-.1 1.4.2 2.5.6 2.5.5 0 .9-.8.9-1.7 0-1.5.2-1.4 1.6.3 1.4 1.8 1.4 1.8.3-.5-.9-2-.9-2.3.3-1.8.8.3 1.5-.1 1.5-.8 0-.8-.7-1.1-1.6-.8-1.3.5-1.3.3-.4-.7.6-.7.9-1.9.6-2.8-.5-1.1-.3-1.3.7-.7.9.5 1.1.4.6-.3-.4-.7-1.4-1.2-2.2-1.2-.8 0-1.4-.5-1.4-1 0-2.5 4.3.1 4.5 2.7.2 2.7 1.5 4.4 2.8 3.6.7-.4.6 0-.2 1-.7.9-.9 1.7-.3 1.7.6 0 1.6 2.2 2.3 5 .7 2.7 1.7 5 2.2 5 .5 0 .6-.8.2-1.8-.4-.9-.9-2.6-1.1-3.7-1-4.2-1.3-5-1.4-5.3-.2-.1-.3-.5-.4-1-.1-.4-.4-1.2-.7-1.7-.4-.6-.5-1.8-.4-2.8.2-.9-.1-1.7-.6-1.7s-.9-.9-.9-2.1c0-1.3-.4-1.8-1.2-1.3-.7.4-.8.3-.4-.4.4-.6 1.4-.8 2.3-.5 1.2.5 1.4.3.8-.8-.5-.8.1-.6 1.3.4 1.1 1.1 1.8 2.5 1.5 3.2-.2.8.5 2 1.6 2.7 1.2.7 2.1 2.1 2.1 3 0 1 .4 1.8.8 1.8.5 0 2.6 2.7 4.7 6s4.3 6 4.8 6 .4-.6-.2-1.3c-.6-.8-.7-1.7-.3-2.1.4-.4 0-.6-.8-.4-.8.1-1.4-.3-1.2-.9.1-.7-.3-1.3-.9-1.3-.8 0-.7-.6.2-1.8 1.3-1.6 1.3-1.6-.5-.2-1.8 1.4-1.9 1.3-1.3-.3.4-.9.2-1.7-.5-1.7s-.6-.5.2-1.5c1.1-1.3 1-1.4-.3-.9-1.2.4-1.5.1-1.2-1.6.2-1.2-.4-2.9-1.5-4s-2-2.2-2-2.5V195c0-.6-.8-1-1.7-1.1-1.5 0-1.5-.2.2-.9 1.4-.6 1.6-.9.5-1-.8-.2-1.9-.2-2.3-.1-.4.1 0-1 .9-2.4s2-2.2 2.5-1.9c.5.3.9 0 .9-.6 0-1.5 5.1-.4 6.9 1.6.9.9 1.1 1.4.4 1-.6-.3-1.5-.1-1.9.6-.4.7-.4 1 .1.6.4-.4 2 .8 3.6 2.8 1.6 2 3 3 3.4 2.4.3-.6 1-.8 1.5-.5.4.3 1-.2 1.3-1 .4-1 .1-1.2-1-.8-.9.4-1.4.2-1.1-.3.4-.5 0-1.8-.9-2.9-1.4-2-1.4-2-3 0l-1.6 2 .7-2c1.2-3.3 1.2-4-.2-3.7-.8.1-1.1-.2-.8-.7.4-.5-.2-1.4-1.1-2-1-.6-1.3-1.1-.7-1.1.5 0 2.8 1.3 5 3 2.8 2 4.1 2.5 4.1 1.5 0-.8-.4-1.2-.8-1-.8.6-2-2.1-1.2-2.8.3-.3 1.9.7 3.6 2.3 1.7 1.6 3.3 2.7 3.6 2.4.2-.2-.4-1-1.4-1.8-1.1-.8-1.5-1.8-1-2.6.5-.9.4-1.1-.3-.6-.7.4-1.2.3-1.2-.3 0-.5-.8-.8-1.9-.6-1.4.3-1.8-.3-1.7-2.3 0-1.7-.4-2.6-1.3-2.4-.7.1-1-.2-.6-.7.7-1.3 3.5-.3 5.5 1.9.8.9 2.3 1.9 3.3 2.3.9.3 1.7 1.4 1.7 2.3 0 1.4.3 1.4 1.5.4 1.3-1.1 1.4-1 .9.4-.5 1.2 0 1.9 1.5 2.3 1.1.3 2.1 1.2 2.1 2s.6 1.3 1.2 1c.7-.2 2.6.7 4.3 2.2l3 2.6-2.3-2.6c-1.3-1.5-2-2.9-1.5-3.1.4-.3.3-.4-.4-.2-1.8.4-2.4-.8-1.1-2.5 1-1.3 1-1.4-.2-.3-1.6 1.3-3.1 1.6-2.9.4.3-1.9-.2-3.3-1.1-2.7-.5.3-1-.1-1-.9 0-.9-.6-1.6-1.3-1.6-.7 0-3.3-2.1-5.7-4.7-2.5-2.6-3.5-3.9-2.2-2.9 1.2 1.1 2.5 1.6 2.9 1.3.4-.4-.2-1.4-1.3-2.3-1-.8-1.4-1.3-.7-1 .6.4 1.4.2 1.8-.4.3-.5 0-1-.7-1-.9 0-.9-.3-.2-.8.6-.4 1.6-1.6 2.2-2.7.6-1.1 1.2-1.4 1.2-.7s.5 1 1 .7c.6-.3 1-.1 1 .5s.5.8 1.2.4c.6-.4.8-.3.5.2-.3.6.4 1.1 1.6 1.1 1.2.1 2.3.7 2.5 1.3.2.5 1.3 1 2.3 1 1.3 0 1.8.4 1.3 1.2-.5.7-.3.8.5.4.7-.5 2.2 0 3.4 1.1 1.9 1.6 2 1.6.8 0-.7-.9-3.5-2.9-6.2-4.4-2.7-1.4-4.9-3-4.9-3.5s-.4-.7-.9-.4c-1.3.9-3.1-1.8-2.2-3.3.6-.9 1.1-1 1.5-.2.4.6.2 1.1-.4 1.1-.6 0-.8.5-.4 1.1.4.8 1.3.4 2.6-1.2 1.4-1.8 1.7-2 1.1-.5-.5 1.5-.3 1.7.8 1.1 1.2-.7 1.2-.6.1.7-.9 1.1-1 1.8-.2 2.3.5.3 1 .1 1-.4 0-.6.5-1.1 1.1-1.1.5 0 .7.5.4 1-.3.6.1 1 .9 1 .9 0 1.6.5 1.6 1.2 0 .6.3.8.7.5.3-.4 1.2-.2 1.9.4.8.6 2.1.8 3 .5 1.2-.5 1.5-.2 1 .9-.3.9-.2 1.3.4 1 .6-.3 1-.2 1 .3s.7.9 1.5.9 1.5-.4 1.5-.9c0-.4-.6-.8-1.3-.8-.7 0-1.8-.9-2.5-2.1-1.1-1.7-1.6-1.9-2.9-.7-1.4 1.1-1.5 1-.8-1.2.6-2 .5-2.3-.6-1.3-1.8 1.8-3 1.6-2.7-.5.2-.9-.3-1.6-.9-1.5-.7.2-1.3-.5-1.3-1.4 0-.9-.3-1.4-.6-1-.4.3-1.3-.1-2.1-.9s-1.8-1.2-2.2-1c-.4.3-.8-.1-.8-.8 0-.7.6-1.3 1.4-1.3.7 0 1.3.5 1.3 1s.6.7 1.4.4c.8-.3 1.7-.1 2 .6.4.7.4.2.2-1-.5-2.9.2-3 1.3-.1.5 1.5 1.7 2.2 3.7 2.3 3.9.3 5.7.8 6.7 2 .5.6.6.2.3-.8-.4-1.2-.2-1.7.6-1.4.7.2 1.2 1.1 1 1.8-.2.9.4.7 1.7-.5 1.2-1.1 1.8-2.2 1.5-2.5-.4-.3-.9 0-1.1.6-.3.9-1 .9-2.8-.3-1.3-.9-2.9-1.3-3.5-.9-.5.3-1 .1-1-.4 0-.6-.5-1.1-1.1-1.1-.8 0-.8.4 0 1.3.8 1 .7 1.4-.2 1.4-.7 0-1.4-1-1.5-2.3-.2-2.3 1.1-2.6 3.7-1 1 .6 1.2.5.7-.2-.7-1.2.3-1.5 3.4-1.3.8 0-.1-.7-2-1.5-1.9-.9-3.9-2.2-4.5-3-.9-1.3-1.1-1.2-1.2.5-.1 1.5.4 2.1 1.8 2.1 1 0 1.9.4 1.9.9s-.8.8-1.7.6c-2.3-.3-4.3 1.3-3.7 3 .3.7 0 1.6-.7 2.1-.8.5-1 .3-.5-.5.9-1.4-2.2-5.3-3.5-4.6-.4.3-1 .1-1.3-.4-.9-1.3 1.9-.7 3.8.8 2 1.7 2.1.3.1-1.9-1.3-1.4-1.3-1.7-.1-1.7.8 0 1.4.5 1.3 1-.1.5.3 1.1 1 1.4.7.3.9-.3.6-1.6-.3-1.2-1-2.1-1.7-2.2-5.1-.3-6.1-1.1-4.5-3.8.9-1.4 1.7-1.7 2.5-1s1.4.7 1.9 0c.4-.7 1.5-.5 3 .5 2.2 1.5 2.5 1.5 3.1.1.7-1.9-.4-4-1.7-3.2-1.5 1-1-.7.8-2.7.9-1.1 1.1-1.8.5-1.8-.7 0-1.2.5-1.2 1.1 0 .5-.5.7-1 .4-.6-.4-.7-1.2-.3-1.8.5-.8.2-.8-.9 0-.8.7-1.8 1-2.1.6-.4-.3.1-1.2 1-1.8 1.5-1.1 1.5-1.5.4-2.9-.8-.9-2.1-1.4-3-1.1-1.1.3-1 0 .3-1 1.4-1.1 1.6-1.5.5-1.5-1.2 0-1.2-.2 0-.9 1.6-1 .5-3.4-1.2-2.5-.8.4-.7.2.1-.7 1.1-1.2 1.4-1.2 2.2.1.6.8.8 2 .6 2.6-.3.7.7 1.1 2.7 1 1.7-.1 3.3-.8 3.5-1.5.3-1 0-1.2-1.1-.8-.9.3-2.7-.3-4-1.4-1.4-1-3.2-1.6-4.1-1.3-1.7.7-2.2-1.1-.6-2.1.5-.3 1-1.1 1-1.6 0-.6-.5-.7-1.2-.3-.7.4-.8.3-.4-.5.4-.6 1.3-.8 1.9-.4 1.6 1.1 6.7 1.1 6.1.1-.3-.4-.1-.8.4-.8.6 0 1.3-.7 1.6-1.6.5-1.4.4-1.5-.8-.5-1 .9-1.6.9-2.1.1-.4-.7.1-1.4 1.3-1.7 1.7-.4 2-1.5 1.2-4.3-.1-.3-.5.4-1 1.5-.7 1.7-.9 1.7-.9.3-.1-1 1.1-2.5 2.7-3.3 1.5-.9 1.8-1.3.7-.9-1.1.3-2.5.7-3.2.7-.7 0-1.2.3-1.1.6.2 1.9-.4 2.4-1.2 1.1-.5-.8-1.2-1.1-1.6-.7-.4.3-.1 1.5.7 2.4 1.2 1.6 1.2 1.7-.2.6-.9-.7-1.9-1.1-2.2-.8-.4.3-.5.2-.2-.2.3-.3-.2-1.8-1.1-3.2-1.2-1.7-1.4-2.6-.5-2.9.6-.2.9-.8.6-1.2-.3-.5.6-.7 2.1-.4 1.5.3 2.3.1 2-.5-.4-.5.4-1.1 1.6-1.3 1.2-.2 2.3-.9 2.6-1.6.3-1.1 0-1.2-1.6-.3-1.5.8-2.3.7-3-.2-1.2-1.4-.4-3.1 1.6-3.4 1.6-.4 1.6.9 0 2.6-1.1 1.1-.9 1.1.9 0 1.5-.9 1.9-1.7 1.3-2.5-.6-.6-.6-1.5-.2-1.9.4-.5 0-.4-.8.1-2.3 1.3-4.3 1.4-6 .1-.9-.7-.8-.3.3 1 1 1.2 1.4 2.4.9 2.7-.6.3-1.3-.1-1.6-.9-.4-1.3-1-1.4-2.6-.5-1.6.9-2.4.8-3.6-.5-.8-.8-1.2-1.5-.7-1.5.4 0 .2-.4-.5-.8-.7-.5-1-1.6-.6-2.5.7-2 2-2.2 3-.5.4.6.3.8-.4.4-.6-.3-1.4-.1-1.8.5-.4.8-.3.9.5.5.6-.4 1.1-.4 1 .1-.4 2 .3 2.9 2.2 3 1.2.1 1.9-.3 1.6-1-.2-.7-1.2-1.1-2.2-.9-1.2.2-1.5-.1-.9-1 .5-.7.7-2.2.5-3.3l-.3-2 1.6 2c1.5 2 1.5 2 1-.1-.4-1.5.3-2.5 3-3.9 2-1.1 3.6-2.3 3.6-2.7 0-.3.9-1 2.1-1.3 1.1-.4 1.9-.9 1.6-1.1-.2-.2-1.8.2-3.6.9-1.7.7-2.8 1.7-2.4 2.1.5.4-.1.6-1.2.4-1.1-.1-1.9.2-1.8.8.1.6-.6 1.1-1.5 1.1-3.6 0-4.3.3-3.6 1.5.4.7.4 1-.1.6-.4-.4-1.4-.3-2.1.3-.8.7-1.4.6-2-.2-.4-.7-.3-.9.4-.5.6.3 1.3-.3 1.7-1.4.4-1.1 1.1-1.7 1.7-1.4.7.5.8.2.3-.6-.6-1-1.1-1-2 .3-.7 1-2.1 1.7-3.1 1.6-1.4 0-1.5-.2-.4-.6 3.1-1.2 9-6.5 8.3-7.6-.4-.6 0-.8 1-.4 1 .3 1.7.2 1.7-.3s.7-1.6 1.6-2.4c.8-.9 1-1.6.4-1.6s-1.3.7-1.6 1.5c-.4.8-1.1 1.5-1.8 1.5-1.6.1-5.6 3.6-5.6 5 0 .6-.5.8-1 .5-.7-.4-.7-1.3 0-2.6 1-1.8.6-2.3-1.2-2-1.4.2-.9-1.8.6-2.6 1.2-.7 1.2-1.1.1-2.6-.9-1.3-1.5-1.5-2-.6-.4.6-.1 1.5.6 2.1 1.2.7 1.1.9-.1.7-2.6-.3-4.4.1-3.7.8.4.3-.5 1.2-1.9 2-3.8 1.9-3.9 1.6-.6-1.5 1.6-1.5 3.7-3.9 4.7-5.4.9-1.5 2.1-2.6 2.5-2.3.5.3 1.1.1 1.4-.4 1.1-1.8-2.7-.4-4 1.4-.8 1-1.4 1.3-1.4.7 0-.7-.4-1.2-.9-1.2-.6 0-.8.9-.6 2.1.3 1.4 0 1.9-.9 1.6-.8-.3-1.6.3-1.9 1.4-.4 1.4-1 1.7-2.3 1.2-1.1-.4-1.3-.8-.6-1.1.7-.2.9-.9.6-1.4-.4-.6-.2-.8.3-.5.7.4 1-.3.9-1.8 0-1.4-.2-2.5-.4-2.5-.7 0-3.7 3.4-3.5 3.9.1.3-.1.8-.4 1.1-.2.3-.3-.2-.1-1 .2-.8-.2-1.4-.9-1.5-.6 0-1.5-.4-2-.9-.5-.6-.2-.6.6-.1 1.1.6 1.3.4.8-.8-.7-1.8-.6-1.9 3.6-2.1 2.6-.2 3.1.4 2.8 3.1-.1.7.3 1.3.9 1.3.5 0 .9-.3.9-.8-.3-2 .2-3.3 1.1-2.7.6.4.9.2.8-.4-.2-.5.6-1.7 1.7-2.5 1.8-1.4 1.8-1.5.3-1.6-1 0-1.8.5-1.8 1.1 0 .5-.4.8-.9.4-.5-.3-1.2-.1-1.6.5-.4.7-1.3.7-2.6 0-2.4-1.3-1.6-3 1-2.3 1 .3 2.1.1 2.4-.4.3-.5-.7-.8-2.1-.7-1.5 0-3.1-.4-3.5-1-.6-.7-.7-.6-.5.3.5 1.6-2.5 5.1-4.3 5.1-.5 0-.8.4-.4.9.3.5 0 1.3-.6 1.7-.7.4-.9.3-.6-.3.8-1.3-2-2.6-3.5-1.6-.7.3-.8.1-.4-.5.4-.7.3-1.2-.3-1.2-.5 0-.9-.9-.8-2 .1-1.1.5-2 .9-2s.8-.9.8-2 .5-2 1-2c.6 0 1-.5 1-1.2 0-.6.7-1.9 1.4-2.7 1.1-1.2 1.2-2.1.5-3.1-.9-1.3-1-1.2-.6.2.8 2.4-.4 3-2 1-1.3-1.5-1.3-1.5-.3.6.9 1.8.8 2.3-.4 2.8-.8.3-1.8 1.4-2.1 2.5-.4 1-1.1 1.9-1.8 1.9-.8 0-.8-.3.1-1.2.7-.7 1.2-1.6 1.2-2.2 0-.5-.6-.1-1.4 1-1 1.3-1.1 2.3-.4 3.2.6.7.8 1.5.4 1.9-.3.3-.6.1-.6-.5 0-1.4-2.2-1.2-3.2.3-.4.6-.8.2-.8-.8 0-1.3-.5-1.7-1.7-1.3-1 .3-2.5.1-3.3-.4-1.1-.7-1.1-1-.2-1 .7 0 1-.5.7-1-.4-.6-.1-1.8.7-2.7.7-.9 1.4-2.4 1.4-3.5.1-1 .3-2 .4-2.3.1-.3.3-1.5.3-2.8.1-1.2.6-2.6 1.1-3 .7-.5.5-.7-.4-.4-.8.2-1.5.9-1.5 1.5 0 1.6-2 1.5-2-.1-.1-.6.4-1.6 1-2 .6-.5.4-.7-.5-.4-.8.2-1.6.9-1.6 1.5-.1.7-.2 1.7-.3 2.3 0 .5-.5.8-1 .5-.5-.4-.8.1-.7.9.1.9.6 1.4 1.2 1.3.5-.2.8-.6.7-1.1-.4-1 .9-.9 2.7.3 1.3.8 1.2 1-.4 1-1.3 0-1.6.3-.8 1.2.7.9.6 1.7-.5 2.7-1.3 1.2-1.4 1.1-.9-.5.5-1.5.1-2-1.5-2.1-1.8-.2-1.9 0-.7 1.4.9 1.2 1 1.5.1.9-.8-.4-1.3-.1-1.3.8s-.4 1.6-1 1.6c-.5 0-.9.3-.7.7.1.5-.3.8-.8.9-1.3 0-.7-9.6.6-11.2 1.3-1.6-.3-2.5-2.1-1.3-1.1.6-1.1.9-.2.9.9 0 1 .5.3 1.9-.6 1-.7 2.1-.4 2.5.3.3.1.6-.4.6-.6 0-1 1.1-.9 2.5.3 2.7-1.8 5.3-2.8 3.6-.4-.5-.2-1.2.4-1.6.5-.3 1-1.1 1-1.7 0-.6-.8-.3-1.9.6-1.7 1.6-2 1.6-3.5.1-.9-.9-2-1.4-2.5-1-.5.3-1.2.1-1.5-.4-.4-.5.5-.8 1.9-.6 1.4.1 2.6-.3 2.6-.9.5-3.8.3-7.8-.4-8.3-.4-.2-.4-.9-.1-1.5.4-.7.2-.8-.5-.4-.9.6-.9 1.1 0 2.2.7.8.7 1.4.1 1.4-.5 0-1.2.7-1.5 1.4-.4 1-.1 1.3.9.9 1.4-.5 1.4-.3.3 1.6-.8 1.1-2.1 2.1-2.9 2.1-1.2 0-1.2-.2-.2-.9 1.1-.7 1.1-.9-.1-1.4-1.9-.7-4.1.8-3.2 2.3.5.8.3 1.1-.6.8-.8-.3-1.3-1-1.2-1.6.2-.6-.7-1.6-1.8-2.3-1.5-.8-1.9-.8-1.5 0 1.2 1.8-1.6 1.2-2.9-.6-1.1-1.5-1.3-1.2-1.2 2.5.1 2.3.1 4.2 0 4.2s-.9-.7-1.8-1.6c-1.1-1.2-1.3-2-.5-2.9.8-1 .8-1.5 0-2-.6-.4-.8-1.5-.5-2.6.4-1 .2-1.9-.4-1.9-.6 0-.8-.7-.5-1.5.4-.8.4-1.5.1-1.5-.3 0-.7.6-.9 1.2zm-6.8 6.9c1.2.8 1 .9-.9.4-1.7-.5-2.2-.4-1.6.5.5.9.4 1.1-.4.6-.6-.4-.9-1.2-.6-1.7.8-1.2 1.6-1.1 3.5.2zm14.5 2.9c-.3.5-.1 1.2.5 1.5.6.4 1 .3.9-.2-.3-1.8.1-3.3 1-3.3 1 0 .9 1.4-.4 4.3-.7 1.6-.9 1.6-2.6-.4-2.3-2.6-2.5-4-.4-3.3.8.4 1.3 1 1 1.4zm6.5 2.9c0 .6-.5 1.3-1.2 1.7-.7.5-.8.3-.3-.6.6-1 .4-1.2-.9-.7-1 .4-1.5.3-1.1-.3.8-1.3 3.5-1.3 3.5-.1zm-17 1.5c0 .2-.9.6-2 .9-1.1.3-1.8.1-1.4-.4.5-.9 3.4-1.3 3.4-.5zM181.5 65c.3.6-.1.7-.9.4-1.8-.7-2.1-1.4-.7-1.4.6 0 1.3.4 1.6 1zm12 13.2c.4-.4.3.3-.3 1.4-.6 1.2-.9 2.4-.6 2.7.3.3 0 .8-.7 1.3-.9.5-1.1.1-.7-1.4.4-1.2.2-2.5-.3-2.8-.5-.3-.9-.1-.9.4 0 .6-.7 1.3-1.5 1.6-1.3.5-1.2.1.2-1.8 1.2-1.5 2.2-2.1 2.9-1.5.6.5 1.4.5 1.9.1zm5.5 1.2c0 .2-.8 1-1.7 1.7-1.6 1.3-1.7 1.2-.4-.4 1.3-1.6 2.1-2.1 2.1-1.3zm2.7 21.5c-.1 1.6-.4 1.8-1.7.8-2.5-1.9-2.6-2-.7-1.4.9.4 1.7.2 1.7-.3 0-.6.2-1 .4-1 .3 0 .4.9.3 1.9zm3.3 1.1c0 .5-.4 1-1 1-.5 0-1-.5-1-1 0-.6.5-1 1-1 .6 0 1 .4 1 1zm-153.3 5.5c0 .8-.4 1.2-.9.9-.4-.3-.8 0-.8.7s-.3.9-.6.6c-.4-.4-.1-1.3.6-2.2 1.5-1.9 1.7-1.9 1.7 0zM48 110c0 .5-.2 1-.4 1-.3 0-.8-.5-1.1-1-.3-.6-.1-1 .4-1 .6 0 1.1.4 1.1 1zm153.8 1.5c-.3.3-.9-.2-1.2-1.2-.6-1.4-.5-1.5.5-.6.7.7 1 1.5.7 1.8zm6.4 7.4c-.4 1.1-3.2.8-4.2-.4-.8-1-.7-1.6.7-2.3 1.4-.8 2-.7 2.7.6.6.9.9 1.9.8 2.1zm-156.5 5.9c-.3 1.2-.5 1.1-.6-.6 0-1.2-.6-2.2-1.2-2.2-.5 0-.7-.5-.3-1.1.9-1.6 2.7 1.6 2.1 3.9zm-2.5-2c.9.9.8 1.2-.4 1.2-.8 0-2.1-.6-2.7-1.4-1-1.1-.9-1.4.4-1.2.8.1 2.1.8 2.7 1.4zm6.9.7c.3-.2.5.5.5 1.6 0 1.8-.2 1.8-1.2.5-.6-.9-1.4-1.3-1.7-.9-.4.3-.7-.2-.7-1.2 0-1.3.3-1.5 1.3-.6.8.6 1.6.9 1.8.6zm-2.5 12.8c.4-1 .9-.9 2.1.2.8.8 1.8 1.3 2.2 1.1.4-.3.8.1.8.9s-.5 1.1-1.1.7c-.6-.4-2-.7-3.1-.8-3.7-.2-4.1-.4-4.2-2.5-.2-2.1-.1-2.1 1.3-.3 1.1 1.4 1.7 1.5 2 .7zm151-.1c-1.3.8-1.5 1.3-.5 2.4.6.8 1 1.4.8 1.5-.2 0-1.5.2-2.8.3-2.1.3-2.2.2-.7-1 1.1-.8 1.3-1.4.7-1.9-1.9-1.1-1.2-2.3 1.6-2.3 2.2 0 2.3.2.9 1zm-146.9 4.4c.9.9.8 1.4-.5 1.9-.9.3-1.3.3-.9-.1s-.1-1.2-.9-1.9c-1.3-.9-1.4-1.2-.2-1.2.7 0 1.9.6 2.5 1.3zm149.5.2c-.7.2-1 .8-.6 1.3.3.5 0 .9-.5.9-1.3 0-1.3-.3-.5-2.4.3-.9 1.1-1.3 1.7-.9.8.5.7.8-.1 1.1zM55 147c-1.3.8-.5 3 1.1 3 .6 0 .7-.5.3-1.1-.4-.8 0-.8 1.5 0 2.1 1.2 2.8 2.2 1.4 2-2.2-.4-3.3.2-2.7 1.3.5 1 .4 1-.6.1-.7-.6-2-.9-2.9-.5-1.3.5-1.4.3-.4-.9 1-1.2.9-2-.2-3.6-1.8-2.5-.9-3.6 1.8-2.2 1.5.8 1.6 1.3.7 1.9zm4-1.5c0 1.2-1.9 1.2-2.3 0-.4-.9-.1-1.2.9-.8.7.3 1.4.7 1.4.8zm-.4 14.3c-1.7 1.6-1.8 1.6-.5-.5.7-1.2 1.5-2 1.8-1.7.3.2-.3 1.2-1.3 2.2zm154.4-.4c0 .3-.4.8-1 1.1-.5.3-1 .1-1-.4 0-.6.5-1.1 1-1.1.6 0 1 .2 1 .4zm-32.2 21c0 .6.3 2.1.5 3.3l.5 2.1-3.2-2.1c-1.8-1.2-2.9-2.4-2.4-2.5.5-.2 1.5.2 2.3.8 1.7 1.4 2.1 0 .5-1.6-.7-.7-.6-1.1.3-1.1.8 0 1.4.5 1.5 1.1zm1.8 13.1c.3 1.9-1 1.9-2.6 0-.9-1.1-.9-1.5-.1-1.5.7 0 .9-.6.5-1.3-.5-.9-.4-.9.6 0 .8.7 1.5 2 1.6 2.8zm-24.9 1.9c.1 1.2-.1 1.5-.4.8-.3-.6-.8-1-1.2-.8-.4.3-.8-.1-.8-.8 0-2.2 2.3-1.4 2.4.8zm-47.2 1.6c.3.6-.1.7-.9.4-1.8-.7-2.1-1.4-.7-1.4.6 0 1.3.4 1.6 1zm18.3 2.2c-.2.4.6 1.4 1.7 2.3 1.9 1.6 1.9 1.6.1 1.1-1.1-.4-2.7 0-3.7 1-1.1 1-1.9 1.2-1.9.7 0-.6.7-1.4 1.6-1.7 1.2-.5 1.4-1 .5-2-.6-.7-.8-1.6-.4-2 .8-.8 2.6-.3 2.1.6zm10.6.3c.3.8.1 1.5-.3 1.5-.5 0-1.1-.7-1.5-1.5-.3-.8-.1-1.5.3-1.5.5 0 1.1.7 1.5 1.5zm-3.3.8c-.1 1.2-1.5.9-1.9-.4-.3-.6.1-1 .8-.8.6.3 1.1.8 1.1 1.2zm10.6.2c0 .8-.4 1.2-.9.9-.5-.3-.6-1-.3-1.5.9-1.3 1.2-1.1 1.2.6zm8.7.4c1.2 1.3 1.4 2.1.6 2.6-.5.3-.8 1-.5 1.5.3.5 0 1.2-.7 1.6-.7.4-1 .4-.6-.1.4-.4.3-1.5-.4-2.2-.9-1.1-.9-1.7.3-2.4 1.3-.8.6-1.3-1.3-1-.5 0-.8-.4-.8-.9 0-1.6 1.5-1.2 3.4.9zm16.1 1.1c.2 1.2.1 2-.2 1.6-.4-.4-.8-1.6-1-2.8-.4-2.8.6-1.8 1.2 1.2zm-21.9 4.1c.4.8-.1.9-1.6.4-1.7-.5-2.1-.4-1.5.5.5.9.4 1.1-.4.6-.6-.4-.9-1.2-.6-1.7.8-1.2 3.2-1.1 4.1.2zm-31.8 2.4c-.3.3-.9-.2-1.2-1.2-.6-1.4-.5-1.5.5-.6.7.7 1 1.5.7 1.8z"/><path d="M204.4 117.7c1 1.1 3.7 1.2 3 .2-.3-.5-1.2-.9-2.1-.9-.9 0-1.3.3-.9.7zM131.5 40c.3.5.8 1 1.1 1 .2 0 .4-.5.4-1 0-.6-.5-1-1.1-1-.5 0-.7.4-.4 1zM161 40c0 .5.5 1 1 1 .6 0 1-.5 1-1 0-.6-.4-1-1-1-.5 0-1 .4-1 1zM117.4 43.5c0 1.4.4 2.5.8 2.5s.7-1.1.6-2.5c-.3-3.3-1.6-3.3-1.4 0zM125 42.1c0 .5.5.7 1 .4.6-.3 1-.8 1-1.1 0-.2-.4-.4-1-.4-.5 0-1 .5-1 1.1zM145.5 42c.3.5.8 1 1.1 1 .2 0 .4-.5.4-1 0-.6-.5-1-1.1-1-.5 0-.7.4-.4 1zM85.9 45.9c1.1 2.1 1.7 4.2 1.3 4.6-.4.5-.1.5.7 0 1.1-.6 1.3-.3.9 1.3-.8 3 1.5 4.7 3.3 2.6 1.2-1.5 1.1-1.6-1.1-.9-2.3.7-2.4.6-.6-.7 1.8-1.5 1.8-1.5-.1-2.9-1.1-.8-2.8-2.9-3.7-4.7-.9-1.7-1.9-3.2-2.1-3.2-.3 0 .3 1.7 1.4 3.9zM102.5 43.7c.2 1 .4 2.1.4 2.4.2 1.3 3 1.8 3.7.7.4-.6.3-.9-.2-.6-.9.6-2.9-1-3.1-2.5-.1-.5-.4-1.1-.6-1.4-.3-.3-.4.3-.2 1.4zM131.3 43.5c0 .8.6 1.6 1.3 1.9.7.3 1-.2.7-1.5-.6-2.2-2-2.6-2-.4zM145 45.5c-.7.8-.9 1.5-.5 1.5s0 1.1-.9 2.4c-.9 1.4-1.2 2.7-.7 3.1 1.4.8 4-3.4 3.6-5.7-.3-1.4 0-1.8 1.1-1.4.9.3 1.2.1.9-.4-.9-1.4-2.1-1.2-3.5.5zM95 49.4c0 .2.7.7 1.6 1 .8.3 1.2.2.9-.4-.6-1-2.5-1.4-2.5-.6zM197.5 52c-.3.5-.1 1 .4 1 .6 0 1.1-.5 1.1-1 0-.6-.2-1-.4-1-.3 0-.8.4-1.1 1zM165.6 54.4c.6 1.5.4 1.7-.6 1.1-.9-.6-1.1-.4-.5.5.6 1 .4 1.2-.8.7-1.1-.4-1.4-.2-1.1.8.3.7 1.2 1.6 2 1.9.9.3 1.2.1.9-.5-.4-.5-.1-1.7.6-2.5.9-1.2 1-1.7 0-2.7-1-.9-1.1-.8-.5.7zM160 55c-.8.5-1 1-.5 1 .6 0 1.7-.5 2.5-1s1.1-1 .5-1c-.5 0-1.7.5-2.5 1zM83.5 56.9c-.3.5-.2 1.2.3 1.5.5.3.9-.1.9-.9 0-1.7-.3-1.9-1.2-.6zM159.5 58c-.3.5-.1 1 .4 1 .6 0 1.1-.5 1.1-1 0-.6-.2-1-.4-1-.3 0-.8.4-1.1 1zM174.2 59.6c1 1 2 1.6 2.2 1.3.3-.3-.5-1.1-1.7-1.8-2.1-1.3-2.1-1.2-.5.5zM190.8 60.2c-1 1-1.4 1.8-.9 1.8 1 0 3.6-2.9 3-3.4-.2-.1-1.2.6-2.1 1.6zM86.7 59.6c-1.1 1.1.3 2.4 1.8 1.8.8-.4 1.2-1 .9-1.5-.6-1.1-1.8-1.2-2.7-.3zM171.3 62c-1.1 1.6-1 2.1.6 3 1.4.7 2.2.7 2.7-.2.4-.7.3-.8-.4-.4-1.2.7-1.6-.5-1.3-3.2.3-1.7-.2-1.5-1.6.8zM70.8 62.8c1 2.7 6.2 8.9 6.2 7.5 0-.6-.5-1.5-1.1-1.9-.8-.4-.7-.9.2-1.5.7-.4 1.9-.3 2.5.2.8.7 1.5.6 2-.2.4-.8.3-.9-.4-.5s-1.2.2-1.2-.4c0-.6-.6-1-1.4-.8-.8.2-2.2-.6-3.1-1.7-1.6-2-1.6-2-.6.2 1.5 3 1.4 3.8-.4 2.3-.8-.7-1.5-1.8-1.5-2.6 0-.7-.4-1.6-1-1.9-.6-.4-.7.1-.2 1.3zM174.8 62.7c.6.2 1.8.2 2.5 0 .6-.3.1-.5-1.3-.5-1.4 0-1.9.2-1.2.5zM67 63.9c0 1.1 5.2 6.3 5.7 5.7.3-.3-.8-1.9-2.6-3.5-1.7-1.6-3.1-2.6-3.1-2.2zM199 66.1c0 .5.5.7 1 .4.6-.3 1-.8 1-1.1 0-.2-.4-.4-1-.4-.5 0-1 .5-1 1.1zM60 68c.8.5 2 1 2.5 1 .6 0 .3-.5-.5-1s-1.9-1-2.5-1c-.5 0-.3.5.5 1zM179 68.6c0 .8.5 1.2 1 .9.6-.3 1-1 1-1.6 0-.5-.4-.9-1-.9-.5 0-1 .7-1 1.6zM195.7 68.8c-2.2 2.4-2.2 4.2.1 4.1 1 0 1.2-.3.5-.6-2.1-.8-1.5-2.2.7-1.8 1.1.2 2 0 2-.6 0-.5-.5-.9-1.1-.9-.5 0-.7-.5-.4-1 1-1.6-.1-1.1-1.8.8zM54.5 72c-.3.5-.1 1 .4 1 .6 0 1.1-.5 1.1-1 0-.6-.2-1-.4-1-.3 0-.8.4-1.1 1zM71.5 72c.3.5.8 1 1.1 1 .2 0 .4-.5.4-1 0-.6-.5-1-1.1-1-.5 0-.7.4-.4 1zM57 73.3c0 1.3 3.8 4.5 4.6 3.9.3-.4.4 0 .2.8-.3.8-1.1 1.4-1.7 1.2-.6-.1-1.1.3-1.1.8 0 1.2 3.2.9 4.1-.4.4-.4 1-.3 1.3.3.4.6.2 1.1-.4 1.1-.6 0-.8.5-.4 1.2s.3.8-.4.4c-.8-.5-1-.2-.6.8.4.9.1 1.6-.6 1.6s-1-.8-.7-1.9c.3-1.3.1-1.8-.9-1.4-.7.2-1 1.1-.7 1.9.4 1 0 1.2-1.1.8-.9-.3-1.6-1.1-1.6-1.7 0-.6-.3-.7-.7-.4-1 1.1 2.9 4.2 5.5 4.4 1.2.1 2-.2 1.7-.8-.4-.5.1-1.2.9-1.5.9-.3 1.4-1 1.1-1.4-.3-.5-.1-1.2.5-1.5.7-.4.2-1.4-1.2-2.7-1.3-1.1-2.2-2.5-2-3 .1-.5-.2-.6-.8-.3-.6.4-2-.1-3.1-1.1-1-.9-1.9-1.4-1.9-1.1zM65 76c0 .5.5 1 1.1 1 .5 0 .7-.5.4-1-.3-.6-.8-1-1.1-1-.2 0-.4.4-.4 1z"/><path d="M57.2 76.5c.4.4-.4 1.6-1.7 2.7-2.6 2-3.3 3.8-1.4 3.8.5 0 .8-.4.5-.9-.4-.5.6-1.8 2-2.9 2.1-1.5 2.4-2.1 1.3-2.7-.8-.5-1.1-.5-.7 0zM70 79.9c0 .6.4 1.3 1 1.6.6.3.7-.1.4-.9-.7-1.8-1.4-2.1-1.4-.7zM54.6 85.8c-.3.5.1.9.9.9s1.2-.4.9-.9c-.3-.4-.7-.8-.9-.8-.2 0-.6.4-.9.8zM211.6 97c.6.8 1 2.3.8 3.3-.2 1.7-.1 1.7 1.5.3 1-.9 2-1.4 2.3-1.1.2.3.5-.1.5-.9 0-.7-.7-1.3-1.6-1.1-.9.1-2.3-.3-3.1-.9-1.2-.9-1.3-.8-.4.4zM43.6 98.7c-.6 1.4-.5 1.5.5.6.7-.7 1-1.5.7-1.8-.3-.3-.9.2-1.2 1.2zM218.8 97.7c.6.2 1.8.2 2.5 0 .6-.3.1-.5-1.3-.5-1.4 0-1.9.2-1.2.5zM38.6 106.2c.3.5 1 .6 1.5.3 1.3-.9 1.1-1.2-.6-1.2-.8 0-1.2.4-.9.9zM44.1 105.7c-.1.7-.6 1.2-1.2 1-1.8-.3-2.1 2-.4 2.7.9.3 1.4.2 1-.3-.3-.5 0-1.1.6-1.3.7-.2.9-1.1.6-1.9-.3-.9-.6-1-.6-.2zM207.1 105.9c-.8.5-2 .7-2.7.4-.6-.2-1.5.1-2 .8-.5.9-.2 1 1 .6 1.3-.5 1.7-.3 1.3.7-.4 1-.1 1.3.8.9.8-.3 1.2-.9.9-1.4-.5-.8 1-1.3 2.9-1 .5.1.6-.3.2-.9-.7-1.2-.6-1.2-2.4-.1zM35.3 107.3c0 .8.6 1.4 1.4 1.4.9 0 1-.4.2-1.4-.6-.7-1.2-1.3-1.4-1.3-.1 0-.2.6-.2 1.3zM215.5 108c.3.5.8 1 1.1 1 .2 0 .4-.5.4-1 0-.6-.5-1-1.1-1-.5 0-.7.4-.4 1zM212.7 110.8c-.8 1.6 0 3.7 1.3 3.4.8-.2 2.3-.4 3.2-.5 1-.1 1.8-.5 1.8-1s-.7-.6-1.6-.3c-1.1.4-1.5.2-1.1-.7.5-1.3-3-2.2-3.6-.9zm2.3 1.2c0 .5-.2 1-.4 1-.3 0-.8-.5-1.1-1-.3-.6-.1-1 .4-1 .6 0 1.1.4 1.1 1zM220 112c0 .5.5 1 1.1 1 .5 0 .7-.5.4-1-.3-.6-.8-1-1.1-1-.2 0-.4.4-.4 1zM202.5 123c-.3.6.1.7.9.4 1.8-.7 2.1-1.4.7-1.4-.6 0-1.3.4-1.6 1zM206 122.9c0 .6.4 1.3 1 1.6.6.3.7-.1.4-.9-.7-1.8-1.4-2.1-1.4-.7zM47 126.4c0 .2.8 1 1.8 1.7 1.5 1.3 1.6 1.2.3-.4s-2.1-2.1-2.1-1.3zM53 128c0 .5.5 1 1.1 1 .5 0 .7-.5.4-1-.3-.6-.8-1-1.1-1-.2 0-.4.4-.4 1zM213.1 127.7c-.1 1.6 1.6 2.6 2.4 1.3.4-.6 1.1-.7 1.7-.4.7.4.8.2.4-.5-.6-.9-1.1-.9-2.1-.1s-1.4.7-1.8-.2c-.4-.9-.6-.9-.6-.1zM206.7 133.2c1.1 1.2 2 1.5 2.8.8.6-.5 1.5-.7 1.8-.3.4.3-.1 1.3-1.1 2.1-1.1.9-.8.9 1.1-.2 1.5-.9 2.7-1.4 2.7-1 0 .4.7.1 1.5-.6 1.2-1 1.5-1 1.5.1 0 .9.3 1 .8.4.9-1.3 4-1.5 6.7-.5 1.5.6 2.2.4 2.2-.3 0-.8-2-1.2-5.9-1.2-3.3.1-6.1-.2-6.4-.7-.3-.4-1.6-.3-2.9.2-1.5.6-2.5.6-2.5 0 0-.5-.9-.8-2-.7-1.8.1-1.8.2-.3 1.9zm7.7-.4c.3.5-.1.9-.9.9s-1.2-.4-.9-.9c.3-.4.7-.8.9-.8.2 0 .6.4.9.8zM23.6 134.2c.3.4 1.1.5 1.9.1 2.1-.7 1.9-1.2-.4-1-1.1 0-1.8.5-1.5.9zM28.6 134.2c.3.5 1 .6 1.5.3 1.3-.9 1.1-1.2-.6-1.2-.8 0-1.2.4-.9.9zM42.6 135.8c-.3.5.1.9.9.9s1.5-.4 1.5-.9c0-.4-.4-.8-.9-.8-.6 0-1.2.4-1.5.8zM211.9 143.8c.7 1.3.6 2.3-.2 3.3-.7.7-.3.6.8-.3 1.2-1 3-1.5 4.2-1.2 1.1.3 2.4 0 2.8-.7.5-.7.4-1-.3-.5-.6.3-1.4.1-1.7-.5-.4-.5-1.3-.8-2.1-.5-.7.3-1.6.1-1.9-.4-1.2-1.9-2.6-1.1-1.6.8zM44.5 144.9c-.3.5-.2 1.2.3 1.5.5.3.9-.1.9-.9 0-1.7-.3-1.9-1.2-.6zM41 146.1c0 .5.5.7 1 .4.6-.3 1-.8 1-1.1 0-.2-.4-.4-1-.4-.5 0-1 .5-1 1.1zM221.5 146c.3.5.8 1 1.1 1 .2 0 .4-.5.4-1 0-.6-.5-1-1.1-1-.5 0-.7.4-.4 1zM200.5 147c-.7 1.2-.8 1.1 2.8 1.4 1.6.1 3.1-.3 3.4-.9.4-.5.3-.7-.1-.3-.5.4-1.9.3-3.2-.2-1.4-.6-2.6-.6-2.9 0zM217 154.4c0 .2.7.9 1.5 1.6.9.7 1.5.8 1.5.2 0-.5-.7-1.2-1.5-1.6-.8-.3-1.5-.4-1.5-.2zM221 156c0 .5.5 1 1.1 1 .5 0 .7-.5.4-1-.3-.6-.8-1-1.1-1-.2 0-.4.4-.4 1zM37.5 157c-.3.6.1.7.9.4 1.8-.7 2.1-1.4.7-1.4-.6 0-1.3.4-1.6 1zM43.4 163.6c-1.8 1.4-1.8 1.5.4.4 1.2-.6 2.2-1.3 2.2-1.5 0-.8-.5-.6-2.6 1.1zM217.5 163.1c-.3.4.2.6 1 .5 2.1-.3 2.8-1.3 1-1.3-.9 0-1.8.4-2 .8zM58 168.1c0 .5-.5.7-1.2.3-.7-.5-.8-.3-.3.6.6 1 .4 1.2-1.1.6-1.4-.5-1.6-.4-.8.4 1.3 1.3 4.4.3 4.4-1.6 0-.8-.2-1.4-.5-1.4s-.5.5-.5 1.1zM190.5 167.9c.3.5.2 1.1-.2 1.4-.5.2-.1.2.7 0 1.1-.2 1.1 0-.2 1.1-2 1.5-2.5 3.1-.5 1.9.6-.4 1.5-.8 2-.8.4 0 .7-.3.7-.8v-1.6c0-.5-.7-1.2-1.6-1.5-.8-.3-1.3-.2-.9.3zM62.7 172.6c.6 1.5 2.3 1.9 2.3.5 0-.5-.7-1.1-1.4-1.4-1-.4-1.3-.1-.9.9zM61 173.9c0 .6.4 1.3 1 1.6.6.3.7-.1.4-.9-.7-1.8-1.4-2.1-1.4-.7zM191.6 174.2c.3.4-.2.8-1 .8-.9 0-1.6.4-1.6 1 0 .5.5 1 1 1h1.8c.4 0 .7-.3.7-.8 0-.4.3-1.2.7-1.8.4-.6.1-1.1-.7-1.1-.8 0-1.2.4-.9.9zM217 175.1c0 .5.5.7 1 .4.6-.3 1-.8 1-1.1 0-.2-.4-.4-1-.4-.5 0-1 .5-1 1.1zM69 178c0 .5.5 1 1.1 1 .5 0 .7-.5.4-1-.3-.6-.8-1-1.1-1-.2 0-.4.4-.4 1zM183 180c0 .5.5 1 1 1 .6 0 1-.5 1-1 0-.6-.4-1-1-1-.5 0-1 .4-1 1zM71.5 187c.3.5-.3 1.3-1.2 1.9-1 .5-1.5 1.2-1.2 1.5.3.3 1.5-.3 2.6-1.4 1.8-1.6 2.2-1.7 2.7-.5.3.8.1 1.5-.4 1.5-.6 0-1 .5-1 1.1 0 .5 1.3.2 3-.8 1.7-.9 3-2.1 3-2.5 0-1.2-1.8-1.9-2.5-.8-.4.6-1.2.7-1.8.3-1.7-1.1-3.8-1.3-3.2-.3zM170.5 188c-.4.6-1.1.7-1.7.4-.6-.4-.8-.2-.4.4.3.5.1 1.2-.6 1.4-.7.3-.3.7.9 1 1.7.5 2 .2 1.6-1.1-.5-1.3-.3-1.4.8-.4.7.7 1.8 1.3 2.4 1.3.5 0 .2-.5-.8-1.1-.9-.6-1.5-1.4-1.2-2 .4-.5.4-.9.1-.9-.3 0-.8.5-1.1 1zM173 188c0 .6.7 1 1.5 1s1.5-.2 1.5-.4-.7-.6-1.5-1c-.8-.3-1.5-.1-1.5.4zM86.9 190.7c-.1.5-.1 1.2 0 1.7s-.5.6-1.3.3c-.9-.4-1.8-.2-2 .2-.5.7 1.4.8 4.7.2 1.1-.2.8-3.1-.3-3.1-.5 0-1.1.3-1.1.7zM92.3 191.7c-.3.8-.3 1.7.1 2 .3.4.6-.1.6-1.1 0-.9.4-1.5.9-1.1.5.3 1.2.2 1.5-.3.3-.5-.2-.9-1-.9-.9 0-1.8.7-2.1 1.4zM59.1 192.6c0 1.1.3 1.4.6.6.3-.7.2-1.6-.1-1.9-.3-.4-.6.2-.5 1.3zM66.6 191.9c-.3.5.1 1.1.9 1.4.9.4 1.2.1.8-.9-.6-1.6-1-1.7-1.7-.5zM70.5 193.3c-.6 1.2-1.7 2.1-2.6 2.1-.9-.1-1.6.4-1.6 1s-.4 2-.7 3.1c-.5 1.5-.4 1.5.5-.3.7-1.2 1.5-2.2 1.8-2.2 1.7-.1 5-3.6 4.3-4.7-.5-.8-1.1-.5-1.7 1zM79.3 194.5c0 .8.4 1.2.9.9.5-.3.6-1 .3-1.5-.9-1.3-1.2-1.1-1.2.6zM89.5 194c-.3.5-.1 1 .4 1 .6 0 1.1-.5 1.1-1 0-.6-.2-1-.4-1-.3 0-.8.4-1.1 1zM170.8 193.7c.6.3 1 .9.6 1.4-.8 1.4.2 1.1 1.4-.4.8-1 .6-1.3-1.1-1.4-1.2 0-1.6.1-.9.4zM93.4 196.5c.4 1.2.2 1.6-.6 1.2-.9-.3-1.4.6-1.5 2.6-.1 1.7-.7 3.4-1.4 3.7-.7.5-.5.9.5 1.3s1.6.1 1.6-.9c0-.8.4-1.3.9-.9.6.3.8-.7.5-2.2-.3-2.1-.2-2.4.5-1.3.9 1.3 1.2 1.3 2.3.1 1.1-1.2 1-1.2-.2-.6-1.2.7-1.3.6-.3-.6s.8-1.7-.9-2.8c-1.8-1.1-2-1.1-1.4.4zM162.5 196.1c-.4.6-.4 1.3-.1 1.6.3.4.6.1.6-.6s.5-.9 1.2-.5.8.3.4-.4c-.9-1.5-1.3-1.5-2.1-.1zM183.6 198.2c.3.5 1 .6 1.5.3 1.3-.9 1.1-1.2-.6-1.2-.8 0-1.2.4-.9.9zM96.2 201.9c-1 .6-1 1 .3 2.1s1.4 1 .9-.5c-.6-1.4-.4-1.6.6-1 .9.5 1.1.4.6-.3-.8-1.4-.7-1.4-2.4-.3zM108.7 202.5c-.4.9-.1 1.2.9.8.9-.3 1.4.2 1.4 1.6 0 1.2.6 2.1 1.3 2.1.9 0 .9.2-.1.8-1.5 1-2.4 5-1.2 5.7.5.3 1.1.1 1.4-.4.4-.5.2-1.2-.4-1.6-.6-.4-.4-1.2.5-2.2 1.2-1.2 1.3-1.8.4-2.9-1-1.2-.9-1.3.5-.8 2.5 1 1.9-.3-1.3-2.5-2.4-1.7-3-1.8-3.4-.6zM140 205c-.9.6-1 1-.3 1 .6 0 1.5-.5 1.8-1 .8-1.2.4-1.2-1.5 0zM88 207.2c0 .6-.7 2-1.7 3-2.2 2.4-.8 3.6 1.6 1.4 1.1-1 1.7-2.5 1.4-3.4-.5-1.1-.3-1.3.7-.7.9.5 1.1.4.6-.3-.9-1.5-2.6-1.5-2.6 0zm1 2.2c0 .2-.8 1-1.7 1.7-1.6 1.3-1.7 1.2-.4-.4 1.3-1.6 2.1-2.1 2.1-1.3zM94.9 207.7c-1.3 1.6-1.2 1.7.4.4 1.6-1.3 2.1-2.1 1.3-2.1-.2 0-1 .8-1.7 1.7zM141.5 207c-.4.6-1 .8-1.4.6-.3-.3-.7.4-.7 1.4 0 1.1.6 2.2 1.3 2.4.7.3 1-.1.6-1-.3-.8 0-2.1.7-2.9.7-.8 1-1.5.7-1.5-.3 0-.9.5-1.2 1z"/><path d="M107.5 207.9c-.3.5 0 1.3.6 1.7.7.4.9.3.5-.4-.3-.5 0-1.3.6-1.5.9-.4 1-.6.1-.6-.6-.1-1.4.3-1.8.8zM125.5 208c-.3.6.1.7.9.4 1.8-.7 2.1-1.4.7-1.4-.6 0-1.3.4-1.6 1zM121.3 211.5c0 .8.4 1.2.9.9.5-.3.6-1 .3-1.5-.9-1.3-1.2-1.1-1.2.6zM125 212.1c0 .5.5.7 1 .4.6-.3 1-.8 1-1.1 0-.2-.4-.4-1-.4-.5 0-1 .5-1 1.1zM131 212.1c0 .5.5.7 1 .4.6-.3 1-.8 1-1.1 0-.2-.4-.4-1-.4-.5 0-1 .5-1 1.1zM155.7 212.5c-.6 1.5 1 3.2 2 2.1.4-.3.1-.6-.5-.6s-.9-.7-.6-1.5c.4-.8.4-1.5.1-1.5-.3 0-.7.7-1 1.5zM161 211.9c0 .6.4 1.3 1 1.6.6.3.7-.1.4-.9-.7-1.8-1.4-2.1-1.4-.7zM114.5 214c-.3.6.1.7.9.4 1.8-.7 2.1-1.4.7-1.4-.6 0-1.3.4-1.6 1zM83.9 215.7c-1.3 1.6-1.2 1.7.4.4 1.6-1.3 2.1-2.1 1.3-2.1-.2 0-1 .8-1.7 1.7zM109.4 216c0 1.3.4 1.6 1 1 .7-.7.7-1.3 0-2-.6-.6-1-.3-1 1zM115 218.1c0 .5.5.7 1 .4.6-.3 1-.8 1-1.1 0-.2-.4-.4-1-.4-.5 0-1 .5-1 1.1zM166.5 218.9c-.3.5-.1 1.2.5 1.6.6.4.7 1.1.4 1.7-.4.7-.2.8.5.4.8-.6.9-1.2.2-2-.6-.7-.8-1.6-.4-1.9.3-.4.4-.7 0-.7-.3 0-.8.4-1.2.9zM169 226c0 .5.5 1 1.1 1 .5 0 .7-.5.4-1-.3-.6-.8-1-1.1-1-.2 0-.4.4-.4 1zM149 230.1c0 .5.5.7 1 .4.6-.3 1-.8 1-1.1 0-.2-.4-.4-1-.4-.5 0-1 .5-1 1.1zM149.6 233.8c-.2.4-.1 1.4.4 2.2.7 1.1.9.9.7-.8-.1-2.4-.3-2.6-1.1-1.4z"/></svg>